<svg id="visual" viewBox="0 0 1920 1080" width="1920" height="1080" xmlns="http://www.w3.org/2000/svg" xmlns:xlink="http://www.w3.org/1999/xlink" version="1.1"><rect x="0" y="0" width="1920" height="1080" fill="#001220"></rect><path d="M0 699L45.7 704C91.3 709 182.7 719 274.2 709.3C365.7 699.7 457.3 670.3 548.8 662.2C640.3 654 731.7 667 823 685C914.3 703 1005.7 726 1097 727.5C1188.3 729 1279.7 709 1371.2 707.8C1462.7 706.7 1554.3 724.3 1645.8 733.3C1737.3 742.3 1828.7 742.7 1874.3 742.8L1920 743L1920 1081L1874.3 1081C1828.7 1081 1737.3 1081 1645.8 1081C1554.3 1081 1462.7 1081 1371.2 1081C1279.7 1081 1188.3 1081 1097 1081C1005.7 1081 914.3 1081 823 1081C731.7 1081 640.3 1081 548.8 1081C457.3 1081 365.7 1081 274.2 1081C182.7 1081 91.3 1081 45.7 1081L0 1081Z" fill="#fa7268"></path><path d="M0 764L45.7 775.8C91.3 787.7 182.7 811.3 274.2 810C365.7 808.7 457.3 782.3 548.8 778.8C640.3 775.3 731.7 794.7 823 810.3C914.3 826 1005.7 838 1097 836.5C1188.3 835 1279.7 820 1371.2 809.8C1462.7 799.7 1554.3 794.3 1645.8 804.3C1737.3 814.3 1828.7 839.7 1874.3 852.3L1920 865L1920 1081L1874.3 1081C1828.7 1081 1737.3 1081 1645.8 1081C1554.3 1081 1462.7 1081 1371.2 1081C1279.7 1081 1188.3 1081 1097 1081C1005.7 1081 914.3 1081 823 1081C731.7 1081 640.3 1081 548.8 1081C457.3 1081 365.7 1081 274.2 1081C182.7 1081 91.3 1081 45.7 1081L0 1081Z" fill="#ef5f67"></path><path d="M0 788L45.7 796C91.3 804 182.7 820 274.2 838.3C365.7 856.7 457.3 877.3 548.8 886.7C640.3 896 731.7 894 823 884C914.3 874 1005.7 856 1097 854.2C1188.3 852.3 1279.7 866.7 1371.2 873.3C1462.7 880 1554.3 879 1645.8 869.5C1737.3 860 1828.7 842 1874.3 833L1920 824L1920 1081L1874.3 1081C1828.7 1081 1737.3 1081 1645.8 1081C1554.3 1081 1462.7 1081 1371.2 1081C1279.7 1081 1188.3 1081 1097 1081C1005.7 1081 914.3 1081 823 1081C731.7 1081 640.3 1081 548.8 1081C457.3 1081 365.7 1081 274.2 1081C182.7 1081 91.3 1081 45.7 1081L0 1081Z" fill="#e34c67"></path><path d="M0 959L45.7 953.3C91.3 947.7 182.7 936.3 274.2 928.5C365.7 920.7 457.3 916.3 548.8 921.3C640.3 926.3 731.7 940.7 823 933.2C914.3 925.7 1005.7 896.3 1097 893C1188.3 889.7 1279.7 912.3 1371.2 913.2C1462.7 914 1554.3 893 1645.8 886.8C1737.3 880.7 1828.7 889.3 1874.3 893.7L1920 898L1920 1081L1874.3 1081C1828.7 1081 1737.3 1081 1645.8 1081C1554.3 1081 1462.7 1081 1371.2 1081C1279.7 1081 1188.3 1081 1097 1081C1005.7 1081 914.3 1081 823 1081C731.7 1081 640.3 1081 548.8 1081C457.3 1081 365.7 1081 274.2 1081C182.7 1081 91.3 1081 45.7 1081L0 1081Z" fill="#d53867"></path><path d="M0 1007L45.7 998.7C91.3 990.3 182.7 973.7 274.2 964.5C365.7 955.3 457.3 953.7 548.8 965.5C640.3 977.3 731.7 1002.7 823 1002.5C914.3 1002.3 1005.7 976.7 1097 964.5C1188.3 952.3 1279.7 953.7 1371.2 965C1462.7 976.3 1554.3 997.7 1645.8 1004.7C1737.3 1011.7 1828.7 1004.3 1874.3 1000.7L1920 997L1920 1081L1874.3 1081C1828.7 1081 1737.3 1081 1645.8 1081C1554.3 1081 1462.7 1081 1371.2 1081C1279.7 1081 1188.3 1081 1097 1081C1005.7 1081 914.3 1081 823 1081C731.7 1081 640.3 1081 548.8 1081C457.3 1081 365.7 1081 274.2 1081C182.7 1081 91.3 1081 45.7 1081L0 1081Z" fill="#c62368"></path></svg>