<svg id="visual" viewBox="0 0 1920 1080" width="1920" height="1080" xmlns="http://www.w3.org/2000/svg" xmlns:xlink="http://www.w3.org/1999/xlink" version="1.1"><rect x="0" y="0" width="1920" height="1080" fill="#001220"></rect><path d="M0 652L45.7 672C91.3 692 182.7 732 274.2 739.5C365.7 747 457.3 722 548.8 699.8C640.3 677.7 731.7 658.3 823 654C914.3 649.7 1005.7 660.3 1097 671.3C1188.3 682.3 1279.7 693.7 1371.2 714.2C1462.7 734.7 1554.3 764.3 1645.8 760.8C1737.3 757.3 1828.7 720.7 1874.3 702.3L1920 684L1920 1081L1874.3 1081C1828.7 1081 1737.3 1081 1645.8 1081C1554.3 1081 1462.7 1081 1371.2 1081C1279.7 1081 1188.3 1081 1097 1081C1005.7 1081 914.3 1081 823 1081C731.7 1081 640.3 1081 548.8 1081C457.3 1081 365.7 1081 274.2 1081C182.7 1081 91.3 1081 45.7 1081L0 1081Z" fill="#fa7268"></path><path d="M0 858L45.7 852.3C91.3 846.7 182.7 835.3 274.2 811.8C365.7 788.3 457.3 752.7 548.8 743.2C640.3 733.7 731.7 750.3 823 750.3C914.3 750.3 1005.7 733.7 1097 746.2C1188.3 758.7 1279.7 800.3 1371.2 800.8C1462.7 801.3 1554.3 760.7 1645.8 747.8C1737.3 735 1828.7 750 1874.3 757.5L1920 765L1920 1081L1874.3 1081C1828.7 1081 1737.3 1081 1645.8 1081C1554.3 1081 1462.7 1081 1371.2 1081C1279.7 1081 1188.3 1081 1097 1081C1005.7 1081 914.3 1081 823 1081C731.7 1081 640.3 1081 548.8 1081C457.3 1081 365.7 1081 274.2 1081C182.7 1081 91.3 1081 45.7 1081L0 1081Z" fill="#ef5f67"></path><path d="M0 840L45.7 838.3C91.3 836.7 182.7 833.3 274.2 828.3C365.7 823.3 457.3 816.7 548.8 825.3C640.3 834 731.7 858 823 855.5C914.3 853 1005.7 824 1097 809.3C1188.3 794.7 1279.7 794.3 1371.2 805.3C1462.7 816.3 1554.3 838.7 1645.8 844.2C1737.3 849.7 1828.7 838.3 1874.3 832.7L1920 827L1920 1081L1874.3 1081C1828.7 1081 1737.3 1081 1645.8 1081C1554.3 1081 1462.7 1081 1371.2 1081C1279.7 1081 1188.3 1081 1097 1081C1005.7 1081 914.3 1081 823 1081C731.7 1081 640.3 1081 548.8 1081C457.3 1081 365.7 1081 274.2 1081C182.7 1081 91.3 1081 45.7 1081L0 1081Z" fill="#e34c67"></path><path d="M0 880L45.7 881C91.3 882 182.7 884 274.2 887.7C365.7 891.3 457.3 896.7 548.8 904.7C640.3 912.7 731.7 923.3 823 922.2C914.3 921 1005.7 908 1097 905.5C1188.3 903 1279.7 911 1371.2 921.2C1462.7 931.3 1554.3 943.7 1645.8 943.5C1737.3 943.3 1828.7 930.7 1874.3 924.3L1920 918L1920 1081L1874.3 1081C1828.7 1081 1737.3 1081 1645.8 1081C1554.3 1081 1462.7 1081 1371.2 1081C1279.7 1081 1188.3 1081 1097 1081C1005.7 1081 914.3 1081 823 1081C731.7 1081 640.3 1081 548.8 1081C457.3 1081 365.7 1081 274.2 1081C182.7 1081 91.3 1081 45.7 1081L0 1081Z" fill="#d53867"></path><path d="M0 945L45.7 946C91.3 947 182.7 949 274.2 954C365.7 959 457.3 967 548.8 974.3C640.3 981.7 731.7 988.3 823 986.7C914.3 985 1005.7 975 1097 974.8C1188.3 974.7 1279.7 984.3 1371.2 982.2C1462.7 980 1554.3 966 1645.8 964.5C1737.3 963 1828.7 974 1874.3 979.5L1920 985L1920 1081L1874.3 1081C1828.7 1081 1737.3 1081 1645.8 1081C1554.3 1081 1462.7 1081 1371.2 1081C1279.7 1081 1188.3 1081 1097 1081C1005.7 1081 914.3 1081 823 1081C731.7 1081 640.3 1081 548.8 1081C457.3 1081 365.7 1081 274.2 1081C182.7 1081 91.3 1081 45.7 1081L0 1081Z" fill="#c62368"></path></svg>